<svg width="24" height="24" xmlns="http://www.w3.org/2000/svg">
 <g>
  <path fill="#ffffff" id="svg_3" d="m17,20l-14.5,0c-1.378,0 -2.5,-1.122 -2.5,-2.5l0,-15c0,-1.378 1.122,-2.5 2.5,-2.5l8,0c0.214,0 0.404,0.136 0.473,0.338l6.5,19c0.052,0.152 0.027,0.321 -0.066,0.452c-0.094,0.132 -0.245,0.21 -0.407,0.21zm-14.5,-19c-0.827,0 -1.5,0.673 -1.5,1.5l0,15c0,0.827 0.673,1.5 1.5,1.5l13.8,0l-6.157,-18l-7.643,0z"/>
  <path fill="#ffffff" id="svg_5" d="m21.5,24l-8,0c-0.208,0 -0.395,-0.129 -0.468,-0.324l-1.5,-4c-0.097,-0.259 0.034,-0.547 0.292,-0.644c0.259,-0.096 0.547,0.034 0.644,0.292l1.379,3.676l7.653,0c0.827,0 1.5,-0.673 1.5,-1.5l0,-15c0,-0.827 -0.673,-1.5 -1.5,-1.5l-9.5,0c-0.276,0 -0.5,-0.224 -0.5,-0.5s0.224,-0.5 0.5,-0.5l9.5,0c1.378,0 2.5,1.122 2.5,2.5l0,15c0,1.378 -1.122,2.5 -2.5,2.5z"/>
  <path fill="#ffffff" id="svg_7" d="m13.5,24c-0.117,0 -0.234,-0.041 -0.329,-0.124c-0.208,-0.182 -0.229,-0.498 -0.047,-0.706l3.5,-4c0.182,-0.209 0.498,-0.229 0.706,-0.047c0.208,0.182 0.229,0.498 0.047,0.706l-3.5,4c-0.1,0.113 -0.238,0.171 -0.377,0.171z"/>
  <path fill="#ffffff" id="svg_9" d="m9.5,14c-0.206,0 -0.398,-0.127 -0.471,-0.332l-2.029,-5.681l-2.029,5.681c-0.093,0.26 -0.38,0.396 -0.639,0.303c-0.26,-0.093 -0.396,-0.379 -0.303,-0.639l2.5,-7c0.142,-0.398 0.8,-0.398 0.941,0l2.5,7c0.093,0.26 -0.042,0.546 -0.303,0.639c-0.054,0.02 -0.111,0.029 -0.167,0.029z"/>
  <path fill="#ffffff" id="svg_11" d="m8,11l-2,0c-0.276,0 -0.5,-0.224 -0.5,-0.5s0.224,-0.5 0.5,-0.5l2,0c0.276,0 0.5,0.224 0.5,0.5s-0.224,0.5 -0.5,0.5z"/>
  <path fill="#ffffff" id="svg_13" d="m21.5,11l-7,0c-0.276,0 -0.5,-0.224 -0.5,-0.5s0.224,-0.5 0.5,-0.5l7,0c0.276,0 0.5,0.224 0.5,0.5s-0.224,0.5 -0.5,0.5z"/>
  <path fill="#ffffff" id="svg_15" d="m17.5,11c-0.276,0 -0.5,-0.224 -0.5,-0.5l0,-1c0,-0.276 0.224,-0.5 0.5,-0.5s0.5,0.224 0.5,0.5l0,1c0,0.276 -0.224,0.5 -0.5,0.5z"/>
  <path fill="#ffffff" id="svg_17" d="m16,17c-0.157,0 -0.311,-0.073 -0.408,-0.21c-0.16,-0.225 -0.107,-0.537 0.118,-0.697c2.189,-1.555 3.79,-4.727 3.79,-5.592c0,-0.276 0.224,-0.5 0.5,-0.5s0.5,0.224 0.5,0.5c0,1.318 -1.927,4.785 -4.21,6.408c-0.088,0.061 -0.189,0.091 -0.29,0.091z"/>
  <path fill="#ffffff" id="svg_19" d="m20,18c-0.121,0 -0.242,-0.043 -0.337,-0.131c-0.363,-0.332 -3.558,-3.283 -4.126,-4.681c-0.104,-0.256 0.02,-0.547 0.275,-0.651c0.253,-0.103 0.547,0.019 0.651,0.275c0.409,1.007 2.936,3.459 3.875,4.319c0.204,0.187 0.217,0.502 0.031,0.707c-0.099,0.107 -0.234,0.162 -0.369,0.162z"/>
 </g>
</svg>